<?xml version="1.0" encoding="utf-8"?> <!-- Generator: IcoMoon.io --> <!DOCTYPE svg PUBLIC "-//W3C//DTD SVG 1.1//EN" "http://www.w3.org/Graphics/SVG/1.1/DTD/svg11.dtd"> <svg width="32" height="32" viewBox="0 0 32 32" xmlns="http://www.w3.org/2000/svg" xmlns:xlink="http://www.w3.org/1999/xlink" fill="#000000"><g><path d="M 28.078,0 L 30.179,17.861 L 27.821,18.139 L 25.944,2.188 L 6.056,2.188 L 4.179,18.139 L 1.821,17.861 L 3.922,0 ZM 8,4L 24,4L 24,6L 8,6zM 8,8L 24,8L 24,10L 8,10zM 8,12L 24,12L 24,14L 8,14zM 8,16L 24,16L 24,18L 8,18zM 31,20L 1,20 c-0.55,0-0.858,0.427-0.684,0.949L 3.684,31.051C 3.858,31.573, 4.45,32, 5,32l 22,0 c 0.55,0, 1.142-0.427, 1.316-0.949l 3.368-10.103C 31.858,20.427, 31.55,20, 31,20z M 20,24L 12,24 l0-2 l 8,0 L 20,24 z"></path></g></svg>